# xmcd CD database file
#
# Track frame offsets:
#	150
#	21052
#	35395
#	48700
#	67122
#	85827
#	103330
#	118312
#	136930
#	153705
#	170500
#	183687
#	196492
#	218360
#
# Disc length: 3186 seconds
#
# Revision: 0
# Processed by: cddbd v1.4PL0 Copyright (c) Steve Scherf et al.
# Submitted via: CDex 1.50Beta7
#
DISCID=cf0c700e
DTITLE=Yordano - Finales de Siglo
DYEAR=1900
DGENRE=Blues
TTITLE0=Madera fina
TTITLE1=No toquen esa canción
TTITLE2=Veneno
TTITLE3=Locos de amor
TTITLE4=Finales de siglo
TTITLE5=No voy a mover un dedo
TTITLE6=Batalla perdida
TTITLE7=Robando azules
TTITLE8=Manantial de corazón
TTITLE9=Una de ésas
TTITLE10=Piedra sobre piedra
TTITLE11=En un beso la vida
TTITLE12=Perla Negra
TTITLE13=La balada de Pedro Matute
EXTD=
EXTT0=
EXTT1=
EXTT2=
EXTT3=
EXTT4=
EXTT5=
EXTT6=
EXTT7=
EXTT8=
EXTT9=
EXTT10=
EXTT11=
EXTT12=
EXTT13=
PLAYORDER=
